<svg xmlns="http://www.w3.org/2000/svg" width="407.249" height="806.032" viewBox="0 0 407.249 806.032"><defs><style>.a{fill:#80949d;}.b{fill:#f2f2f6;}.c{fill:#f5f7fb;}.d{fill:#00293b;}</style></defs><g transform="translate(-70.017 -7.661)"><path class="a" d="M340.147,304.9a4.857,4.857,0,0,0-4.858-4.858h-29.37a4.857,4.857,0,0,1-4.858-4.858V269.372a4.857,4.857,0,0,1,4.858-4.858h29.37a4.857,4.857,0,0,0,4.858-4.858V230.289a4.857,4.857,0,0,1,4.858-4.858h25.814a4.857,4.857,0,0,1,4.858,4.858v29.367a4.857,4.857,0,0,0,4.858,4.858h3.806a168.873,168.873,0,1,0-44.195,44.922Z" transform="translate(29.563 5.521)"/><path class="b" d="M-2373.359-33.882l.205-4.906A22.347,22.347,0,0,1-2356.3-59.215l43.974-11.069,26.451-13.041,0-.006v-20.946a56.844,56.844,0,0,1-31.231-46.831,23.67,23.67,0,0,1-3.761.328,23.642,23.642,0,0,1-23.639-23.64,23.6,23.6,0,0,1,8.9-18.479v-26.161a58.619,58.619,0,0,1,58.445-58.445h16.608a32.378,32.378,0,0,1,27.737,15.831,32.03,32.03,0,0,1,16.521-4.611,32.438,32.438,0,0,1,32.342,32.342v42.5a23.569,23.569,0,0,1,7.244,17.027,23.642,23.642,0,0,1-23.64,23.64,23.557,23.557,0,0,1-3.763-.328,56.81,56.81,0,0,1-56.5,52.818,56.253,56.253,0,0,1-12.656-1.436,56.035,56.035,0,0,0,12.656,1.443,56.14,56.14,0,0,0,26.907-6.846v21.8l-12.154,25.073a5.4,5.4,0,0,1-4.865,3.05h-18.987a5.409,5.409,0,0,1-4.027-1.8,5.41,5.41,0,0,0,4.029,1.8h18.987a5.4,5.4,0,0,0,4.865-3.049l12.154-25.077,26.452,13.042,21.375,5.381h-12.073a4.857,4.857,0,0,0-4.858,4.858v25.814a4.857,4.857,0,0,0,4.858,4.858h29.37a4.857,4.857,0,0,1,4.858,4.857v4.57a167.856,167.856,0,0,1-96.069,30.03A168.06,168.06,0,0,1-2373.359-33.882ZM-2269.707-55.2Zm-47.526-142.565c0,24.7-.014,35.5,0,40.632v-40.639a23.694,23.694,0,0,0-3.633-.289h0A23.808,23.808,0,0,1-2317.233-197.766ZM-2204-206.231c.006.3.01.589.01.885v7.581q.589-.093,1.186-.158-.6.064-1.183.155v-7.574c0-.3,0-.589-.01-.885a3.042,3.042,0,0,0-.708-1.891A3.045,3.045,0,0,1-2204-206.231Zm-117.133,8.172h0Zm.13,0h0Zm73.4-25.827q.448.438.985.927-.536-.486-.981-.925-.072-.07-.147-.135Q-2247.673-223.957-2247.6-223.888Z" transform="translate(2533.429 334.939)"/><path class="c" d="M254.615,110.854h-29.37A4.857,4.857,0,0,1,220.387,106V76.629a4.857,4.857,0,0,0-4.858-4.858H189.715a4.857,4.857,0,0,0-4.858,4.858V106A4.857,4.857,0,0,1,180,110.854h-29.37a4.857,4.857,0,0,0-4.858,4.858v25.814a4.857,4.857,0,0,0,4.858,4.858H180a4.857,4.857,0,0,1,4.858,4.858v29.367a4.857,4.857,0,0,0,4.858,4.858h25.814a4.857,4.857,0,0,0,4.858-4.858V151.242a4.857,4.857,0,0,1,4.858-4.858h29.37a4.857,4.857,0,0,0,4.858-4.858V115.712A4.857,4.857,0,0,0,254.615,110.854Z" transform="translate(184.856 159.175)"/><path class="b" d="M299.6,270.184a44.467,44.467,0,0,0-44.336-44.336H140.638a44.336,44.336,0,1,0,0,88.671H255.261A44.467,44.467,0,0,0,299.6,270.184Z" transform="translate(75.694 499.174)"/><path class="b" d="M434.872,135.5h-333.5a36.877,36.877,0,1,0,0,73.754h333.5a36.877,36.877,0,0,0,0-73.754Z" transform="translate(5.517 299.805)"/><path class="b" d="M434.872,185.5h-333.5a36.877,36.877,0,1,0,0,73.754h333.5a36.877,36.877,0,1,0,0-73.754Z" transform="translate(5.517 410.139)"/><path class="d" d="M121.213,70.738A8.017,8.017,0,0,1,134.5,61.765a13.891,13.891,0,0,0,23.027,0,8.017,8.017,0,0,1,13.285,8.979,29.93,29.93,0,0,1-49.6,0Z" transform="translate(127.631 129.305)"/><path class="d" d="M126.787,63.339a8.014,8.014,0,1,1,8.017-8.017A8.026,8.026,0,0,1,126.787,63.339Z" transform="translate(125.274 105.202)"/><path class="d" d="M140.246,63.234a8.03,8.03,0,0,1-8.017-8.017c0-10.518,16.033-10.438,16.033,0A8,8,0,0,1,140.246,63.234Z" transform="translate(154.973 105.306)"/></g></svg>